<?xml version="1.0" standalone="no"?>
<!DOCTYPE svg PUBLIC "-//W3C//DTD SVG 20010904//EN"
 "http://www.w3.org/TR/2001/REC-SVG-20010904/DTD/svg10.dtd">
<svg version="1.0" xmlns="http://www.w3.org/2000/svg"
 width="186.000000pt" height="186.000000pt" viewBox="0 0 186.000000 186.000000"
 preserveAspectRatio="xMidYMid meet">
<metadata>
Created by potrace 1.14, written by Peter Selinger 2001-2017
</metadata>
<g transform="translate(0.000000,186.000000) scale(0.100000,-0.100000)"
fill="#000000" stroke="none">
<path d="M920 1836 c0 -18 -7 -26 -22 -29 l-23 -4 23 -8 c18 -6 22 -15 22 -46
0 -21 -6 -41 -14 -46 -18 -11 -25 -35 -15 -54 6 -12 -7 -49 -41 -122 l-50
-106 0 -120 0 -120 -43 -25 -43 -26 1 -62 0 -62 -121 -98 c-139 -112 -274
-250 -339 -349 -25 -37 -45 -70 -45 -71 0 -2 71 -3 158 -1 172 2 256 -9 382
-53 70 -24 230 -110 230 -124 0 -3 33 0 73 7 71 12 310 12 372 -2 92 -19 189
-50 250 -80 39 -18 72 -32 74 -29 9 9 -41 161 -81 244 -76 158 -230 328 -448
495 -36 27 -66 50 -68 51 -2 1 -5 32 -7 69 -2 36 -5 68 -7 69 -1 1 -20 13 -40
25 l-38 23 0 121 0 122 -50 103 c-36 74 -48 108 -41 120 10 20 3 44 -15 55 -8
5 -14 25 -14 46 0 31 4 40 23 46 l22 8 -22 4 c-16 3 -23 11 -23 29 0 13 -4 24
-10 24 -5 0 -10 -11 -10 -24z m192 -1143 c116 -69 75 -259 -59 -268 -150 -11
-217 183 -91 264 41 26 109 28 150 4z"/>
<path d="M202 317 c-41 -6 -65 -14 -71 -26 -11 -19 -37 -142 -46 -216 -4 -27
-8 -54 -9 -60 0 -7 289 -10 852 -11 468 -1 852 2 852 5 0 10 -92 66 -150 91
-113 48 -253 69 -425 65 -122 -3 -225 -12 -234 -20 -2 -2 -26 13 -55 34 -89
67 -194 108 -334 132 -84 14 -297 18 -380 6z"/>
</g>
</svg>
